<svg width="2388" height="22" viewBox="0 0 2388 22" fill="none" xmlns="http://www.w3.org/2000/svg">
<mask id="mask0_127_168" style="mask-type:alpha" maskUnits="userSpaceOnUse" x="0" y="0" width="2388" height="22">
<rect width="2388" height="22" fill="#D9D9D9"/>
</mask>
<g mask="url(#mask0_127_168)">
<rect x="-24.1191" y="0.77832" width="1" height="32.4545" transform="rotate(-51.0999 -24.1191 0.77832)" fill="#D9D9D9"/>
<rect x="7.76172" y="0.77832" width="1" height="32.4545" transform="rotate(-51.0999 7.76172 0.77832)" fill="#D9D9D9"/>
<rect x="39.6426" y="0.77832" width="1" height="32.4545" transform="rotate(-51.0999 39.6426 0.77832)" fill="#D9D9D9"/>
<rect x="71.5234" y="0.77832" width="1" height="32.4545" transform="rotate(-51.0999 71.5234 0.77832)" fill="#D9D9D9"/>
<rect x="103.404" y="0.77832" width="1" height="32.4545" transform="rotate(-51.0999 103.404 0.77832)" fill="#D9D9D9"/>
<rect x="135.285" y="0.77832" width="1" height="32.4545" transform="rotate(-51.0999 135.285 0.77832)" fill="#D9D9D9"/>
<rect x="167.166" y="0.77832" width="1" height="32.4545" transform="rotate(-51.0999 167.166 0.77832)" fill="#D9D9D9"/>
<rect x="199.047" y="0.77832" width="1" height="32.4545" transform="rotate(-51.0999 199.047 0.77832)" fill="#D9D9D9"/>
<rect x="230.928" y="0.77832" width="1" height="32.4545" transform="rotate(-51.0999 230.928 0.77832)" fill="#D9D9D9"/>
<rect x="262.809" y="0.77832" width="1" height="32.4545" transform="rotate(-51.0999 262.809 0.77832)" fill="#D9D9D9"/>
<rect x="294.689" y="0.77832" width="1" height="32.4545" transform="rotate(-51.0999 294.689 0.77832)" fill="#D9D9D9"/>
<rect x="326.57" y="0.77832" width="1" height="32.4545" transform="rotate(-51.0999 326.57 0.77832)" fill="#D9D9D9"/>
<rect x="358.451" y="0.77832" width="1" height="32.4545" transform="rotate(-51.0999 358.451 0.77832)" fill="#D9D9D9"/>
<rect x="390.332" y="0.77832" width="1" height="32.4545" transform="rotate(-51.0999 390.332 0.77832)" fill="#D9D9D9"/>
<rect x="422.213" y="0.77832" width="1" height="32.4545" transform="rotate(-51.0999 422.213 0.77832)" fill="#D9D9D9"/>
<rect x="454.094" y="0.77832" width="1" height="32.4545" transform="rotate(-51.0999 454.094 0.77832)" fill="#D9D9D9"/>
<rect x="485.975" y="0.77832" width="1" height="32.4545" transform="rotate(-51.0999 485.975 0.77832)" fill="#D9D9D9"/>
<rect x="517.855" y="0.77832" width="1" height="32.4545" transform="rotate(-51.0999 517.855 0.77832)" fill="#D9D9D9"/>
<rect x="549.736" y="0.77832" width="1" height="32.4545" transform="rotate(-51.0999 549.736 0.77832)" fill="#D9D9D9"/>
<rect x="581.617" y="0.77832" width="1" height="32.4545" transform="rotate(-51.0999 581.617 0.77832)" fill="#D9D9D9"/>
<rect x="613.498" y="0.77832" width="1" height="32.4545" transform="rotate(-51.0999 613.498 0.77832)" fill="#D9D9D9"/>
<rect x="645.379" y="0.77832" width="1" height="32.4545" transform="rotate(-51.0999 645.379 0.77832)" fill="#D9D9D9"/>
<rect x="677.26" y="0.77832" width="1" height="32.4545" transform="rotate(-51.0999 677.26 0.77832)" fill="#D9D9D9"/>
<rect x="709.141" y="0.77832" width="1" height="32.4545" transform="rotate(-51.0999 709.141 0.77832)" fill="#D9D9D9"/>
<rect x="741.021" y="0.77832" width="1" height="32.4545" transform="rotate(-51.0999 741.021 0.77832)" fill="#D9D9D9"/>
<rect x="772.902" y="0.77832" width="1" height="32.4545" transform="rotate(-51.0999 772.902 0.77832)" fill="#D9D9D9"/>
<rect x="804.783" y="0.77832" width="1" height="32.4545" transform="rotate(-51.0999 804.783 0.77832)" fill="#D9D9D9"/>
<rect x="836.664" y="0.77832" width="1" height="32.4545" transform="rotate(-51.0999 836.664 0.77832)" fill="#D9D9D9"/>
<rect x="868.545" y="0.77832" width="1" height="32.4545" transform="rotate(-51.0999 868.545 0.77832)" fill="#D9D9D9"/>
<rect x="900.426" y="0.77832" width="1" height="32.4545" transform="rotate(-51.0999 900.426 0.77832)" fill="#D9D9D9"/>
<rect x="932.307" y="0.77832" width="1" height="32.4545" transform="rotate(-51.0999 932.307 0.77832)" fill="#D9D9D9"/>
<rect x="964.188" y="0.77832" width="1" height="32.4545" transform="rotate(-51.0999 964.188 0.77832)" fill="#D9D9D9"/>
<rect x="996.068" y="0.77832" width="1" height="32.4545" transform="rotate(-51.0999 996.068 0.77832)" fill="#D9D9D9"/>
<rect x="1027.95" y="0.77832" width="1" height="32.4545" transform="rotate(-51.0999 1027.95 0.77832)" fill="#D9D9D9"/>
<rect x="1059.83" y="0.77832" width="1" height="32.4545" transform="rotate(-51.0999 1059.83 0.77832)" fill="#D9D9D9"/>
<rect x="1091.71" y="0.77832" width="1" height="32.4545" transform="rotate(-51.0999 1091.71 0.77832)" fill="#D9D9D9"/>
<rect x="1123.59" y="0.77832" width="1" height="32.4545" transform="rotate(-51.0999 1123.59 0.77832)" fill="#D9D9D9"/>
<rect x="1155.47" y="0.77832" width="1" height="32.4545" transform="rotate(-51.0999 1155.47 0.77832)" fill="#D9D9D9"/>
<rect x="1187.35" y="0.77832" width="1" height="32.4545" transform="rotate(-51.0999 1187.35 0.77832)" fill="#D9D9D9"/>
<rect x="1219.23" y="0.77832" width="1" height="32.4545" transform="rotate(-51.0999 1219.23 0.77832)" fill="#D9D9D9"/>
<rect x="-8.23828" y="0.77832" width="1" height="32.4545" transform="rotate(-51.0999 -8.23828 0.77832)" fill="#D9D9D9"/>
<rect x="23.6426" y="0.77832" width="1" height="32.4545" transform="rotate(-51.0999 23.6426 0.77832)" fill="#D9D9D9"/>
<rect x="55.5234" y="0.77832" width="1" height="32.4545" transform="rotate(-51.0999 55.5234 0.77832)" fill="#D9D9D9"/>
<rect x="87.4043" y="0.77832" width="1" height="32.4545" transform="rotate(-51.0999 87.4043 0.77832)" fill="#D9D9D9"/>
<rect x="119.285" y="0.77832" width="1" height="32.4545" transform="rotate(-51.0999 119.285 0.77832)" fill="#D9D9D9"/>
<rect x="151.166" y="0.77832" width="1" height="32.4545" transform="rotate(-51.0999 151.166 0.77832)" fill="#D9D9D9"/>
<rect x="183.047" y="0.77832" width="1" height="32.4545" transform="rotate(-51.0999 183.047 0.77832)" fill="#D9D9D9"/>
<rect x="214.928" y="0.77832" width="1" height="32.4545" transform="rotate(-51.0999 214.928 0.77832)" fill="#D9D9D9"/>
<rect x="246.809" y="0.77832" width="1" height="32.4545" transform="rotate(-51.0999 246.809 0.77832)" fill="#D9D9D9"/>
<rect x="278.689" y="0.77832" width="1" height="32.4545" transform="rotate(-51.0999 278.689 0.77832)" fill="#D9D9D9"/>
<rect x="310.57" y="0.77832" width="1" height="32.4545" transform="rotate(-51.0999 310.57 0.77832)" fill="#D9D9D9"/>
<rect x="342.451" y="0.77832" width="1" height="32.4545" transform="rotate(-51.0999 342.451 0.77832)" fill="#D9D9D9"/>
<rect x="374.332" y="0.77832" width="1" height="32.4545" transform="rotate(-51.0999 374.332 0.77832)" fill="#D9D9D9"/>
<rect x="406.213" y="0.77832" width="1" height="32.4545" transform="rotate(-51.0999 406.213 0.77832)" fill="#D9D9D9"/>
<rect x="438.094" y="0.77832" width="1" height="32.4545" transform="rotate(-51.0999 438.094 0.77832)" fill="#D9D9D9"/>
<rect x="469.975" y="0.77832" width="1" height="32.4545" transform="rotate(-51.0999 469.975 0.77832)" fill="#D9D9D9"/>
<rect x="501.855" y="0.77832" width="1" height="32.4545" transform="rotate(-51.0999 501.855 0.77832)" fill="#D9D9D9"/>
<rect x="533.736" y="0.77832" width="1" height="32.4545" transform="rotate(-51.0999 533.736 0.77832)" fill="#D9D9D9"/>
<rect x="565.617" y="0.77832" width="1" height="32.4545" transform="rotate(-51.0999 565.617 0.77832)" fill="#D9D9D9"/>
<rect x="597.498" y="0.77832" width="1" height="32.4545" transform="rotate(-51.0999 597.498 0.77832)" fill="#D9D9D9"/>
<rect x="629.379" y="0.77832" width="1" height="32.4545" transform="rotate(-51.0999 629.379 0.77832)" fill="#D9D9D9"/>
<rect x="661.26" y="0.77832" width="1" height="32.4545" transform="rotate(-51.0999 661.26 0.77832)" fill="#D9D9D9"/>
<rect x="693.141" y="0.77832" width="1" height="32.4545" transform="rotate(-51.0999 693.141 0.77832)" fill="#D9D9D9"/>
<rect x="725.021" y="0.77832" width="1" height="32.4545" transform="rotate(-51.0999 725.021 0.77832)" fill="#D9D9D9"/>
<rect x="756.902" y="0.77832" width="1" height="32.4545" transform="rotate(-51.0999 756.902 0.77832)" fill="#D9D9D9"/>
<rect x="788.783" y="0.77832" width="1" height="32.4545" transform="rotate(-51.0999 788.783 0.77832)" fill="#D9D9D9"/>
<rect x="820.664" y="0.77832" width="1" height="32.4545" transform="rotate(-51.0999 820.664 0.77832)" fill="#D9D9D9"/>
<rect x="852.545" y="0.77832" width="1" height="32.4545" transform="rotate(-51.0999 852.545 0.77832)" fill="#D9D9D9"/>
<rect x="884.426" y="0.77832" width="1" height="32.4545" transform="rotate(-51.0999 884.426 0.77832)" fill="#D9D9D9"/>
<rect x="916.307" y="0.77832" width="1" height="32.4545" transform="rotate(-51.0999 916.307 0.77832)" fill="#D9D9D9"/>
<rect x="948.188" y="0.77832" width="1" height="32.4545" transform="rotate(-51.0999 948.188 0.77832)" fill="#D9D9D9"/>
<rect x="980.068" y="0.77832" width="1" height="32.4545" transform="rotate(-51.0999 980.068 0.77832)" fill="#D9D9D9"/>
<rect x="1011.95" y="0.77832" width="1" height="32.4545" transform="rotate(-51.0999 1011.95 0.77832)" fill="#D9D9D9"/>
<rect x="1043.83" y="0.77832" width="1" height="32.4545" transform="rotate(-51.0999 1043.83 0.77832)" fill="#D9D9D9"/>
<rect x="1075.71" y="0.77832" width="1" height="32.4545" transform="rotate(-51.0999 1075.71 0.77832)" fill="#D9D9D9"/>
<rect x="1107.59" y="0.77832" width="1" height="32.4545" transform="rotate(-51.0999 1107.59 0.77832)" fill="#D9D9D9"/>
<rect x="1139.47" y="0.77832" width="1" height="32.4545" transform="rotate(-51.0999 1139.47 0.77832)" fill="#D9D9D9"/>
<rect x="1171.35" y="0.77832" width="1" height="32.4545" transform="rotate(-51.0999 1171.35 0.77832)" fill="#D9D9D9"/>
<rect x="1203.23" y="0.77832" width="1" height="32.4545" transform="rotate(-51.0999 1203.23 0.77832)" fill="#D9D9D9"/>
<rect x="1235.12" y="0.77832" width="1" height="32.4545" transform="rotate(-51.0999 1235.12 0.77832)" fill="#D9D9D9"/>
<rect x="-16.2383" y="0.77832" width="1" height="32.4545" transform="rotate(-51.0999 -16.2383 0.77832)" fill="#D9D9D9"/>
<rect x="15.6426" y="0.77832" width="1" height="32.4545" transform="rotate(-51.0999 15.6426 0.77832)" fill="#D9D9D9"/>
<rect x="47.5234" y="0.77832" width="1" height="32.4545" transform="rotate(-51.0999 47.5234 0.77832)" fill="#D9D9D9"/>
<rect x="79.4043" y="0.77832" width="1" height="32.4545" transform="rotate(-51.0999 79.4043 0.77832)" fill="#D9D9D9"/>
<rect x="111.285" y="0.77832" width="1" height="32.4545" transform="rotate(-51.0999 111.285 0.77832)" fill="#D9D9D9"/>
<rect x="143.166" y="0.77832" width="1" height="32.4545" transform="rotate(-51.0999 143.166 0.77832)" fill="#D9D9D9"/>
<rect x="175.047" y="0.77832" width="1" height="32.4545" transform="rotate(-51.0999 175.047 0.77832)" fill="#D9D9D9"/>
<rect x="206.928" y="0.77832" width="1" height="32.4545" transform="rotate(-51.0999 206.928 0.77832)" fill="#D9D9D9"/>
<rect x="238.809" y="0.77832" width="1" height="32.4545" transform="rotate(-51.0999 238.809 0.77832)" fill="#D9D9D9"/>
<rect x="270.689" y="0.77832" width="1" height="32.4545" transform="rotate(-51.0999 270.689 0.77832)" fill="#D9D9D9"/>
<rect x="302.57" y="0.77832" width="1" height="32.4545" transform="rotate(-51.0999 302.57 0.77832)" fill="#D9D9D9"/>
<rect x="334.451" y="0.77832" width="1" height="32.4545" transform="rotate(-51.0999 334.451 0.77832)" fill="#D9D9D9"/>
<rect x="366.332" y="0.77832" width="1" height="32.4545" transform="rotate(-51.0999 366.332 0.77832)" fill="#D9D9D9"/>
<rect x="398.213" y="0.77832" width="1" height="32.4545" transform="rotate(-51.0999 398.213 0.77832)" fill="#D9D9D9"/>
<rect x="430.094" y="0.77832" width="1" height="32.4545" transform="rotate(-51.0999 430.094 0.77832)" fill="#D9D9D9"/>
<rect x="461.975" y="0.77832" width="1" height="32.4545" transform="rotate(-51.0999 461.975 0.77832)" fill="#D9D9D9"/>
<rect x="493.855" y="0.77832" width="1" height="32.4545" transform="rotate(-51.0999 493.855 0.77832)" fill="#D9D9D9"/>
<rect x="525.736" y="0.77832" width="1" height="32.4545" transform="rotate(-51.0999 525.736 0.77832)" fill="#D9D9D9"/>
<rect x="557.617" y="0.77832" width="1" height="32.4545" transform="rotate(-51.0999 557.617 0.77832)" fill="#D9D9D9"/>
<rect x="589.498" y="0.77832" width="1" height="32.4545" transform="rotate(-51.0999 589.498 0.77832)" fill="#D9D9D9"/>
<rect x="621.379" y="0.77832" width="1" height="32.4545" transform="rotate(-51.0999 621.379 0.77832)" fill="#D9D9D9"/>
<rect x="653.26" y="0.77832" width="1" height="32.4545" transform="rotate(-51.0999 653.26 0.77832)" fill="#D9D9D9"/>
<rect x="685.141" y="0.77832" width="1" height="32.4545" transform="rotate(-51.0999 685.141 0.77832)" fill="#D9D9D9"/>
<rect x="717.021" y="0.77832" width="1" height="32.4545" transform="rotate(-51.0999 717.021 0.77832)" fill="#D9D9D9"/>
<rect x="748.902" y="0.77832" width="1" height="32.4545" transform="rotate(-51.0999 748.902 0.77832)" fill="#D9D9D9"/>
<rect x="780.783" y="0.77832" width="1" height="32.4545" transform="rotate(-51.0999 780.783 0.77832)" fill="#D9D9D9"/>
<rect x="812.664" y="0.77832" width="1" height="32.4545" transform="rotate(-51.0999 812.664 0.77832)" fill="#D9D9D9"/>
<rect x="844.545" y="0.77832" width="1" height="32.4545" transform="rotate(-51.0999 844.545 0.77832)" fill="#D9D9D9"/>
<rect x="876.426" y="0.77832" width="1" height="32.4545" transform="rotate(-51.0999 876.426 0.77832)" fill="#D9D9D9"/>
<rect x="908.307" y="0.77832" width="1" height="32.4545" transform="rotate(-51.0999 908.307 0.77832)" fill="#D9D9D9"/>
<rect x="940.188" y="0.77832" width="1" height="32.4545" transform="rotate(-51.0999 940.188 0.77832)" fill="#D9D9D9"/>
<rect x="972.068" y="0.77832" width="1" height="32.4545" transform="rotate(-51.0999 972.068 0.77832)" fill="#D9D9D9"/>
<rect x="1003.95" y="0.77832" width="1" height="32.4545" transform="rotate(-51.0999 1003.95 0.77832)" fill="#D9D9D9"/>
<rect x="1035.83" y="0.77832" width="1" height="32.4545" transform="rotate(-51.0999 1035.83 0.77832)" fill="#D9D9D9"/>
<rect x="1067.71" y="0.77832" width="1" height="32.4545" transform="rotate(-51.0999 1067.71 0.77832)" fill="#D9D9D9"/>
<rect x="1099.59" y="0.77832" width="1" height="32.4545" transform="rotate(-51.0999 1099.59 0.77832)" fill="#D9D9D9"/>
<rect x="1131.47" y="0.77832" width="1" height="32.4545" transform="rotate(-51.0999 1131.47 0.77832)" fill="#D9D9D9"/>
<rect x="1163.35" y="0.77832" width="1" height="32.4545" transform="rotate(-51.0999 1163.35 0.77832)" fill="#D9D9D9"/>
<rect x="1195.23" y="0.77832" width="1" height="32.4545" transform="rotate(-51.0999 1195.23 0.77832)" fill="#D9D9D9"/>
<rect x="1227.12" y="0.77832" width="1" height="32.4545" transform="rotate(-51.0999 1227.12 0.77832)" fill="#D9D9D9"/>
<rect x="-0.357422" y="0.77832" width="1" height="32.4545" transform="rotate(-51.0999 -0.357422 0.77832)" fill="#D9D9D9"/>
<rect x="31.5234" y="0.77832" width="1" height="32.4545" transform="rotate(-51.0999 31.5234 0.77832)" fill="#D9D9D9"/>
<rect x="63.4043" y="0.77832" width="1" height="32.4545" transform="rotate(-51.0999 63.4043 0.77832)" fill="#D9D9D9"/>
<rect x="95.2852" y="0.77832" width="1" height="32.4545" transform="rotate(-51.0999 95.2852 0.77832)" fill="#D9D9D9"/>
<rect x="127.166" y="0.77832" width="1" height="32.4545" transform="rotate(-51.0999 127.166 0.77832)" fill="#D9D9D9"/>
<rect x="159.047" y="0.77832" width="1" height="32.4545" transform="rotate(-51.0999 159.047 0.77832)" fill="#D9D9D9"/>
<rect x="190.928" y="0.77832" width="1" height="32.4545" transform="rotate(-51.0999 190.928 0.77832)" fill="#D9D9D9"/>
<rect x="222.809" y="0.77832" width="1" height="32.4545" transform="rotate(-51.0999 222.809 0.77832)" fill="#D9D9D9"/>
<rect x="254.689" y="0.77832" width="1" height="32.4545" transform="rotate(-51.0999 254.689 0.77832)" fill="#D9D9D9"/>
<rect x="286.57" y="0.77832" width="1" height="32.4545" transform="rotate(-51.0999 286.57 0.77832)" fill="#D9D9D9"/>
<rect x="318.451" y="0.77832" width="1" height="32.4545" transform="rotate(-51.0999 318.451 0.77832)" fill="#D9D9D9"/>
<rect x="350.332" y="0.77832" width="1" height="32.4545" transform="rotate(-51.0999 350.332 0.77832)" fill="#D9D9D9"/>
<rect x="382.213" y="0.77832" width="1" height="32.4545" transform="rotate(-51.0999 382.213 0.77832)" fill="#D9D9D9"/>
<rect x="414.094" y="0.77832" width="1" height="32.4545" transform="rotate(-51.0999 414.094 0.77832)" fill="#D9D9D9"/>
<rect x="445.975" y="0.77832" width="1" height="32.4545" transform="rotate(-51.0999 445.975 0.77832)" fill="#D9D9D9"/>
<rect x="477.855" y="0.77832" width="1" height="32.4545" transform="rotate(-51.0999 477.855 0.77832)" fill="#D9D9D9"/>
<rect x="509.736" y="0.77832" width="1" height="32.4545" transform="rotate(-51.0999 509.736 0.77832)" fill="#D9D9D9"/>
<rect x="541.617" y="0.77832" width="1" height="32.4545" transform="rotate(-51.0999 541.617 0.77832)" fill="#D9D9D9"/>
<rect x="573.498" y="0.77832" width="1" height="32.4545" transform="rotate(-51.0999 573.498 0.77832)" fill="#D9D9D9"/>
<rect x="605.379" y="0.77832" width="1" height="32.4545" transform="rotate(-51.0999 605.379 0.77832)" fill="#D9D9D9"/>
<rect x="637.26" y="0.77832" width="1" height="32.4545" transform="rotate(-51.0999 637.26 0.77832)" fill="#D9D9D9"/>
<rect x="669.141" y="0.77832" width="1" height="32.4545" transform="rotate(-51.0999 669.141 0.77832)" fill="#D9D9D9"/>
<rect x="701.021" y="0.77832" width="1" height="32.4545" transform="rotate(-51.0999 701.021 0.77832)" fill="#D9D9D9"/>
<rect x="732.902" y="0.77832" width="1" height="32.4545" transform="rotate(-51.0999 732.902 0.77832)" fill="#D9D9D9"/>
<rect x="764.783" y="0.77832" width="1" height="32.4545" transform="rotate(-51.0999 764.783 0.77832)" fill="#D9D9D9"/>
<rect x="796.664" y="0.77832" width="1" height="32.4545" transform="rotate(-51.0999 796.664 0.77832)" fill="#D9D9D9"/>
<rect x="828.545" y="0.77832" width="1" height="32.4545" transform="rotate(-51.0999 828.545 0.77832)" fill="#D9D9D9"/>
<rect x="860.426" y="0.77832" width="1" height="32.4545" transform="rotate(-51.0999 860.426 0.77832)" fill="#D9D9D9"/>
<rect x="892.307" y="0.77832" width="1" height="32.4545" transform="rotate(-51.0999 892.307 0.77832)" fill="#D9D9D9"/>
<rect x="924.188" y="0.77832" width="1" height="32.4545" transform="rotate(-51.0999 924.188 0.77832)" fill="#D9D9D9"/>
<rect x="956.068" y="0.77832" width="1" height="32.4545" transform="rotate(-51.0999 956.068 0.77832)" fill="#D9D9D9"/>
<rect x="987.949" y="0.77832" width="1" height="32.4545" transform="rotate(-51.0999 987.949 0.77832)" fill="#D9D9D9"/>
<rect x="1019.83" y="0.77832" width="1" height="32.4545" transform="rotate(-51.0999 1019.83 0.77832)" fill="#D9D9D9"/>
<rect x="1051.71" y="0.77832" width="1" height="32.4545" transform="rotate(-51.0999 1051.71 0.77832)" fill="#D9D9D9"/>
<rect x="1083.59" y="0.77832" width="1" height="32.4545" transform="rotate(-51.0999 1083.59 0.77832)" fill="#D9D9D9"/>
<rect x="1115.47" y="0.77832" width="1" height="32.4545" transform="rotate(-51.0999 1115.47 0.77832)" fill="#D9D9D9"/>
<rect x="1147.35" y="0.77832" width="1" height="32.4545" transform="rotate(-51.0999 1147.35 0.77832)" fill="#D9D9D9"/>
<rect x="1179.23" y="0.77832" width="1" height="32.4545" transform="rotate(-51.0999 1179.23 0.77832)" fill="#D9D9D9"/>
<rect x="1211.12" y="0.77832" width="1" height="32.4545" transform="rotate(-51.0999 1211.12 0.77832)" fill="#D9D9D9"/>
<rect x="1243" y="0.77832" width="1" height="32.4545" transform="rotate(-51.0999 1243 0.77832)" fill="#D9D9D9"/>
<rect x="1251" y="0.77832" width="1" height="32.4545" transform="rotate(-51.0999 1251 0.77832)" fill="#D9D9D9"/>
<rect x="1282.88" y="0.77832" width="1" height="32.4545" transform="rotate(-51.0999 1282.88 0.77832)" fill="#D9D9D9"/>
<rect x="1314.76" y="0.77832" width="1" height="32.4545" transform="rotate(-51.0999 1314.76 0.77832)" fill="#D9D9D9"/>
<rect x="1346.64" y="0.77832" width="1" height="32.4545" transform="rotate(-51.0999 1346.64 0.77832)" fill="#D9D9D9"/>
<rect x="1378.52" y="0.77832" width="1" height="32.4545" transform="rotate(-51.0999 1378.52 0.77832)" fill="#D9D9D9"/>
<rect x="1410.4" y="0.77832" width="1" height="32.4545" transform="rotate(-51.0999 1410.4 0.77832)" fill="#D9D9D9"/>
<rect x="1442.29" y="0.77832" width="1" height="32.4545" transform="rotate(-51.0999 1442.29 0.77832)" fill="#D9D9D9"/>
<rect x="1474.17" y="0.77832" width="1" height="32.4545" transform="rotate(-51.0999 1474.17 0.77832)" fill="#D9D9D9"/>
<rect x="1506.05" y="0.77832" width="1" height="32.4545" transform="rotate(-51.0999 1506.05 0.77832)" fill="#D9D9D9"/>
<rect x="1537.93" y="0.77832" width="1" height="32.4545" transform="rotate(-51.0999 1537.93 0.77832)" fill="#D9D9D9"/>
<rect x="1569.81" y="0.77832" width="1" height="32.4545" transform="rotate(-51.0999 1569.81 0.77832)" fill="#D9D9D9"/>
<rect x="1601.69" y="0.77832" width="1" height="32.4545" transform="rotate(-51.0999 1601.69 0.77832)" fill="#D9D9D9"/>
<rect x="1633.57" y="0.77832" width="1" height="32.4545" transform="rotate(-51.0999 1633.57 0.77832)" fill="#D9D9D9"/>
<rect x="1665.45" y="0.77832" width="1" height="32.4545" transform="rotate(-51.0999 1665.45 0.77832)" fill="#D9D9D9"/>
<rect x="1697.33" y="0.77832" width="1" height="32.4545" transform="rotate(-51.0999 1697.33 0.77832)" fill="#D9D9D9"/>
<rect x="1729.21" y="0.77832" width="1" height="32.4545" transform="rotate(-51.0999 1729.21 0.77832)" fill="#D9D9D9"/>
<rect x="1761.09" y="0.77832" width="1" height="32.4545" transform="rotate(-51.0999 1761.09 0.77832)" fill="#D9D9D9"/>
<rect x="1792.97" y="0.77832" width="1" height="32.4545" transform="rotate(-51.0999 1792.97 0.77832)" fill="#D9D9D9"/>
<rect x="1824.86" y="0.77832" width="1" height="32.4545" transform="rotate(-51.0999 1824.86 0.77832)" fill="#D9D9D9"/>
<rect x="1856.74" y="0.77832" width="1" height="32.4545" transform="rotate(-51.0999 1856.74 0.77832)" fill="#D9D9D9"/>
<rect x="1888.62" y="0.77832" width="1" height="32.4545" transform="rotate(-51.0999 1888.62 0.77832)" fill="#D9D9D9"/>
<rect x="1920.5" y="0.77832" width="1" height="32.4545" transform="rotate(-51.0999 1920.5 0.77832)" fill="#D9D9D9"/>
<rect x="1952.38" y="0.77832" width="1" height="32.4545" transform="rotate(-51.0999 1952.38 0.77832)" fill="#D9D9D9"/>
<rect x="1984.26" y="0.77832" width="1" height="32.4545" transform="rotate(-51.0999 1984.26 0.77832)" fill="#D9D9D9"/>
<rect x="2016.14" y="0.77832" width="1" height="32.4545" transform="rotate(-51.0999 2016.14 0.77832)" fill="#D9D9D9"/>
<rect x="2048.02" y="0.77832" width="1" height="32.4545" transform="rotate(-51.0999 2048.02 0.77832)" fill="#D9D9D9"/>
<rect x="2079.9" y="0.77832" width="1" height="32.4545" transform="rotate(-51.0999 2079.9 0.77832)" fill="#D9D9D9"/>
<rect x="2111.78" y="0.77832" width="1" height="32.4545" transform="rotate(-51.0999 2111.78 0.77832)" fill="#D9D9D9"/>
<rect x="2143.66" y="0.77832" width="1" height="32.4545" transform="rotate(-51.0999 2143.66 0.77832)" fill="#D9D9D9"/>
<rect x="2175.54" y="0.77832" width="1" height="32.4545" transform="rotate(-51.0999 2175.54 0.77832)" fill="#D9D9D9"/>
<rect x="2207.43" y="0.77832" width="1" height="32.4545" transform="rotate(-51.0999 2207.43 0.77832)" fill="#D9D9D9"/>
<rect x="2239.31" y="0.77832" width="1" height="32.4545" transform="rotate(-51.0999 2239.31 0.77832)" fill="#D9D9D9"/>
<rect x="2271.19" y="0.77832" width="1" height="32.4545" transform="rotate(-51.0999 2271.19 0.77832)" fill="#D9D9D9"/>
<rect x="2303.07" y="0.77832" width="1" height="32.4545" transform="rotate(-51.0999 2303.07 0.77832)" fill="#D9D9D9"/>
<rect x="2334.95" y="0.77832" width="1" height="32.4545" transform="rotate(-51.0999 2334.95 0.77832)" fill="#D9D9D9"/>
<rect x="2366.83" y="0.77832" width="1" height="32.4545" transform="rotate(-51.0999 2366.83 0.77832)" fill="#D9D9D9"/>
<rect x="1266.88" y="0.77832" width="1" height="32.4545" transform="rotate(-51.0999 1266.88 0.77832)" fill="#D9D9D9"/>
<rect x="1298.76" y="0.77832" width="1" height="32.4545" transform="rotate(-51.0999 1298.76 0.77832)" fill="#D9D9D9"/>
<rect x="1330.64" y="0.77832" width="1" height="32.4545" transform="rotate(-51.0999 1330.64 0.77832)" fill="#D9D9D9"/>
<rect x="1362.52" y="0.77832" width="1" height="32.4545" transform="rotate(-51.0999 1362.52 0.77832)" fill="#D9D9D9"/>
<rect x="1394.4" y="0.77832" width="1" height="32.4545" transform="rotate(-51.0999 1394.4 0.77832)" fill="#D9D9D9"/>
<rect x="1426.29" y="0.77832" width="1" height="32.4545" transform="rotate(-51.0999 1426.29 0.77832)" fill="#D9D9D9"/>
<rect x="1458.17" y="0.77832" width="1" height="32.4545" transform="rotate(-51.0999 1458.17 0.77832)" fill="#D9D9D9"/>
<rect x="1490.05" y="0.77832" width="1" height="32.4545" transform="rotate(-51.0999 1490.05 0.77832)" fill="#D9D9D9"/>
<rect x="1521.93" y="0.77832" width="1" height="32.4545" transform="rotate(-51.0999 1521.93 0.77832)" fill="#D9D9D9"/>
<rect x="1553.81" y="0.77832" width="1" height="32.4545" transform="rotate(-51.0999 1553.81 0.77832)" fill="#D9D9D9"/>
<rect x="1585.69" y="0.77832" width="1" height="32.4545" transform="rotate(-51.0999 1585.69 0.77832)" fill="#D9D9D9"/>
<rect x="1617.57" y="0.77832" width="1" height="32.4545" transform="rotate(-51.0999 1617.57 0.77832)" fill="#D9D9D9"/>
<rect x="1649.45" y="0.77832" width="1" height="32.4545" transform="rotate(-51.0999 1649.45 0.77832)" fill="#D9D9D9"/>
<rect x="1681.33" y="0.77832" width="1" height="32.4545" transform="rotate(-51.0999 1681.33 0.77832)" fill="#D9D9D9"/>
<rect x="1713.21" y="0.77832" width="1" height="32.4545" transform="rotate(-51.0999 1713.21 0.77832)" fill="#D9D9D9"/>
<rect x="1745.09" y="0.77832" width="1" height="32.4545" transform="rotate(-51.0999 1745.09 0.77832)" fill="#D9D9D9"/>
<rect x="1776.97" y="0.77832" width="1" height="32.4545" transform="rotate(-51.0999 1776.97 0.77832)" fill="#D9D9D9"/>
<rect x="1808.86" y="0.77832" width="1" height="32.4545" transform="rotate(-51.0999 1808.86 0.77832)" fill="#D9D9D9"/>
<rect x="1840.74" y="0.77832" width="1" height="32.4545" transform="rotate(-51.0999 1840.74 0.77832)" fill="#D9D9D9"/>
<rect x="1872.62" y="0.77832" width="1" height="32.4545" transform="rotate(-51.0999 1872.62 0.77832)" fill="#D9D9D9"/>
<rect x="1904.5" y="0.77832" width="1" height="32.4545" transform="rotate(-51.0999 1904.5 0.77832)" fill="#D9D9D9"/>
<rect x="1936.38" y="0.77832" width="1" height="32.4545" transform="rotate(-51.0999 1936.38 0.77832)" fill="#D9D9D9"/>
<rect x="1968.26" y="0.77832" width="1" height="32.4545" transform="rotate(-51.0999 1968.26 0.77832)" fill="#D9D9D9"/>
<rect x="2000.14" y="0.77832" width="1" height="32.4545" transform="rotate(-51.0999 2000.14 0.77832)" fill="#D9D9D9"/>
<rect x="2032.02" y="0.77832" width="1" height="32.4545" transform="rotate(-51.0999 2032.02 0.77832)" fill="#D9D9D9"/>
<rect x="2063.9" y="0.77832" width="1" height="32.4545" transform="rotate(-51.0999 2063.9 0.77832)" fill="#D9D9D9"/>
<rect x="2095.78" y="0.77832" width="1" height="32.4545" transform="rotate(-51.0999 2095.78 0.77832)" fill="#D9D9D9"/>
<rect x="2127.66" y="0.77832" width="1" height="32.4545" transform="rotate(-51.0999 2127.66 0.77832)" fill="#D9D9D9"/>
<rect x="2159.54" y="0.77832" width="1" height="32.4545" transform="rotate(-51.0999 2159.54 0.77832)" fill="#D9D9D9"/>
<rect x="2191.43" y="0.77832" width="1" height="32.4545" transform="rotate(-51.0999 2191.43 0.77832)" fill="#D9D9D9"/>
<rect x="2223.31" y="0.77832" width="1" height="32.4545" transform="rotate(-51.0999 2223.31 0.77832)" fill="#D9D9D9"/>
<rect x="2255.19" y="0.77832" width="1" height="32.4545" transform="rotate(-51.0999 2255.19 0.77832)" fill="#D9D9D9"/>
<rect x="2287.07" y="0.77832" width="1" height="32.4545" transform="rotate(-51.0999 2287.07 0.77832)" fill="#D9D9D9"/>
<rect x="2318.95" y="0.77832" width="1" height="32.4545" transform="rotate(-51.0999 2318.95 0.77832)" fill="#D9D9D9"/>
<rect x="2350.83" y="0.77832" width="1" height="32.4545" transform="rotate(-51.0999 2350.83 0.77832)" fill="#D9D9D9"/>
<rect x="2382.71" y="0.77832" width="1" height="32.4545" transform="rotate(-51.0999 2382.71 0.77832)" fill="#D9D9D9"/>
<rect x="1258.88" y="0.77832" width="1" height="32.4545" transform="rotate(-51.0999 1258.88 0.77832)" fill="#D9D9D9"/>
<rect x="1290.76" y="0.77832" width="1" height="32.4545" transform="rotate(-51.0999 1290.76 0.77832)" fill="#D9D9D9"/>
<rect x="1322.64" y="0.77832" width="1" height="32.4545" transform="rotate(-51.0999 1322.64 0.77832)" fill="#D9D9D9"/>
<rect x="1354.52" y="0.77832" width="1" height="32.4545" transform="rotate(-51.0999 1354.52 0.77832)" fill="#D9D9D9"/>
<rect x="1386.4" y="0.77832" width="1" height="32.4545" transform="rotate(-51.0999 1386.4 0.77832)" fill="#D9D9D9"/>
<rect x="1418.29" y="0.77832" width="1" height="32.4545" transform="rotate(-51.0999 1418.29 0.77832)" fill="#D9D9D9"/>
<rect x="1450.17" y="0.77832" width="1" height="32.4545" transform="rotate(-51.0999 1450.17 0.77832)" fill="#D9D9D9"/>
<rect x="1482.05" y="0.77832" width="1" height="32.4545" transform="rotate(-51.0999 1482.05 0.77832)" fill="#D9D9D9"/>
<rect x="1513.93" y="0.77832" width="1" height="32.4545" transform="rotate(-51.0999 1513.93 0.77832)" fill="#D9D9D9"/>
<rect x="1545.81" y="0.77832" width="1" height="32.4545" transform="rotate(-51.0999 1545.81 0.77832)" fill="#D9D9D9"/>
<rect x="1577.69" y="0.77832" width="1" height="32.4545" transform="rotate(-51.0999 1577.69 0.77832)" fill="#D9D9D9"/>
<rect x="1609.57" y="0.77832" width="1" height="32.4545" transform="rotate(-51.0999 1609.57 0.77832)" fill="#D9D9D9"/>
<rect x="1641.45" y="0.77832" width="1" height="32.4545" transform="rotate(-51.0999 1641.45 0.77832)" fill="#D9D9D9"/>
<rect x="1673.33" y="0.77832" width="1" height="32.4545" transform="rotate(-51.0999 1673.33 0.77832)" fill="#D9D9D9"/>
<rect x="1705.21" y="0.77832" width="1" height="32.4545" transform="rotate(-51.0999 1705.21 0.77832)" fill="#D9D9D9"/>
<rect x="1737.09" y="0.77832" width="1" height="32.4545" transform="rotate(-51.0999 1737.09 0.77832)" fill="#D9D9D9"/>
<rect x="1768.97" y="0.77832" width="1" height="32.4545" transform="rotate(-51.0999 1768.97 0.77832)" fill="#D9D9D9"/>
<rect x="1800.86" y="0.77832" width="1" height="32.4545" transform="rotate(-51.0999 1800.86 0.77832)" fill="#D9D9D9"/>
<rect x="1832.74" y="0.77832" width="1" height="32.4545" transform="rotate(-51.0999 1832.74 0.77832)" fill="#D9D9D9"/>
<rect x="1864.62" y="0.77832" width="1" height="32.4545" transform="rotate(-51.0999 1864.62 0.77832)" fill="#D9D9D9"/>
<rect x="1896.5" y="0.77832" width="1" height="32.4545" transform="rotate(-51.0999 1896.5 0.77832)" fill="#D9D9D9"/>
<rect x="1928.38" y="0.77832" width="1" height="32.4545" transform="rotate(-51.0999 1928.38 0.77832)" fill="#D9D9D9"/>
<rect x="1960.26" y="0.77832" width="1" height="32.4545" transform="rotate(-51.0999 1960.26 0.77832)" fill="#D9D9D9"/>
<rect x="1992.14" y="0.77832" width="1" height="32.4545" transform="rotate(-51.0999 1992.14 0.77832)" fill="#D9D9D9"/>
<rect x="2024.02" y="0.77832" width="1" height="32.4545" transform="rotate(-51.0999 2024.02 0.77832)" fill="#D9D9D9"/>
<rect x="2055.9" y="0.77832" width="1" height="32.4545" transform="rotate(-51.0999 2055.9 0.77832)" fill="#D9D9D9"/>
<rect x="2087.78" y="0.77832" width="1" height="32.4545" transform="rotate(-51.0999 2087.78 0.77832)" fill="#D9D9D9"/>
<rect x="2119.66" y="0.77832" width="1" height="32.4545" transform="rotate(-51.0999 2119.66 0.77832)" fill="#D9D9D9"/>
<rect x="2151.54" y="0.77832" width="1" height="32.4545" transform="rotate(-51.0999 2151.54 0.77832)" fill="#D9D9D9"/>
<rect x="2183.43" y="0.77832" width="1" height="32.4545" transform="rotate(-51.0999 2183.43 0.77832)" fill="#D9D9D9"/>
<rect x="2215.31" y="0.77832" width="1" height="32.4545" transform="rotate(-51.0999 2215.31 0.77832)" fill="#D9D9D9"/>
<rect x="2247.19" y="0.77832" width="1" height="32.4545" transform="rotate(-51.0999 2247.19 0.77832)" fill="#D9D9D9"/>
<rect x="2279.07" y="0.77832" width="1" height="32.4545" transform="rotate(-51.0999 2279.07 0.77832)" fill="#D9D9D9"/>
<rect x="2310.95" y="0.77832" width="1" height="32.4545" transform="rotate(-51.0999 2310.95 0.77832)" fill="#D9D9D9"/>
<rect x="2342.83" y="0.77832" width="1" height="32.4545" transform="rotate(-51.0999 2342.83 0.77832)" fill="#D9D9D9"/>
<rect x="2374.71" y="0.77832" width="1" height="32.4545" transform="rotate(-51.0999 2374.71 0.77832)" fill="#D9D9D9"/>
<rect x="1274.76" y="0.77832" width="1" height="32.4545" transform="rotate(-51.0999 1274.76 0.77832)" fill="#D9D9D9"/>
<rect x="1306.64" y="0.77832" width="1" height="32.4545" transform="rotate(-51.0999 1306.64 0.77832)" fill="#D9D9D9"/>
<rect x="1338.52" y="0.77832" width="1" height="32.4545" transform="rotate(-51.0999 1338.52 0.77832)" fill="#D9D9D9"/>
<rect x="1370.4" y="0.77832" width="1" height="32.4545" transform="rotate(-51.0999 1370.4 0.77832)" fill="#D9D9D9"/>
<rect x="1402.29" y="0.77832" width="1" height="32.4545" transform="rotate(-51.0999 1402.29 0.77832)" fill="#D9D9D9"/>
<rect x="1434.17" y="0.77832" width="1" height="32.4545" transform="rotate(-51.0999 1434.17 0.77832)" fill="#D9D9D9"/>
<rect x="1466.05" y="0.77832" width="1" height="32.4545" transform="rotate(-51.0999 1466.05 0.77832)" fill="#D9D9D9"/>
<rect x="1497.93" y="0.77832" width="1" height="32.4545" transform="rotate(-51.0999 1497.93 0.77832)" fill="#D9D9D9"/>
<rect x="1529.81" y="0.77832" width="1" height="32.4545" transform="rotate(-51.0999 1529.81 0.77832)" fill="#D9D9D9"/>
<rect x="1561.69" y="0.77832" width="1" height="32.4545" transform="rotate(-51.0999 1561.69 0.77832)" fill="#D9D9D9"/>
<rect x="1593.57" y="0.77832" width="1" height="32.4545" transform="rotate(-51.0999 1593.57 0.77832)" fill="#D9D9D9"/>
<rect x="1625.45" y="0.77832" width="1" height="32.4545" transform="rotate(-51.0999 1625.45 0.77832)" fill="#D9D9D9"/>
<rect x="1657.33" y="0.77832" width="1" height="32.4545" transform="rotate(-51.0999 1657.33 0.77832)" fill="#D9D9D9"/>
<rect x="1689.21" y="0.77832" width="1" height="32.4545" transform="rotate(-51.0999 1689.21 0.77832)" fill="#D9D9D9"/>
<rect x="1721.09" y="0.77832" width="1" height="32.4545" transform="rotate(-51.0999 1721.09 0.77832)" fill="#D9D9D9"/>
<rect x="1752.97" y="0.77832" width="1" height="32.4545" transform="rotate(-51.0999 1752.97 0.77832)" fill="#D9D9D9"/>
<rect x="1784.86" y="0.77832" width="1" height="32.4545" transform="rotate(-51.0999 1784.86 0.77832)" fill="#D9D9D9"/>
<rect x="1816.74" y="0.77832" width="1" height="32.4545" transform="rotate(-51.0999 1816.74 0.77832)" fill="#D9D9D9"/>
<rect x="1848.62" y="0.77832" width="1" height="32.4545" transform="rotate(-51.0999 1848.62 0.77832)" fill="#D9D9D9"/>
<rect x="1880.5" y="0.77832" width="1" height="32.4545" transform="rotate(-51.0999 1880.5 0.77832)" fill="#D9D9D9"/>
<rect x="1912.38" y="0.77832" width="1" height="32.4545" transform="rotate(-51.0999 1912.38 0.77832)" fill="#D9D9D9"/>
<rect x="1944.26" y="0.77832" width="1" height="32.4545" transform="rotate(-51.0999 1944.26 0.77832)" fill="#D9D9D9"/>
<rect x="1976.14" y="0.77832" width="1" height="32.4545" transform="rotate(-51.0999 1976.14 0.77832)" fill="#D9D9D9"/>
<rect x="2008.02" y="0.77832" width="1" height="32.4545" transform="rotate(-51.0999 2008.02 0.77832)" fill="#D9D9D9"/>
<rect x="2039.9" y="0.77832" width="1" height="32.4545" transform="rotate(-51.0999 2039.9 0.77832)" fill="#D9D9D9"/>
<rect x="2071.78" y="0.77832" width="1" height="32.4545" transform="rotate(-51.0999 2071.78 0.77832)" fill="#D9D9D9"/>
<rect x="2103.66" y="0.77832" width="1" height="32.4545" transform="rotate(-51.0999 2103.66 0.77832)" fill="#D9D9D9"/>
<rect x="2135.54" y="0.77832" width="1" height="32.4545" transform="rotate(-51.0999 2135.54 0.77832)" fill="#D9D9D9"/>
<rect x="2167.43" y="0.77832" width="1" height="32.4545" transform="rotate(-51.0999 2167.43 0.77832)" fill="#D9D9D9"/>
<rect x="2199.31" y="0.77832" width="1" height="32.4545" transform="rotate(-51.0999 2199.31 0.77832)" fill="#D9D9D9"/>
<rect x="2231.19" y="0.77832" width="1" height="32.4545" transform="rotate(-51.0999 2231.19 0.77832)" fill="#D9D9D9"/>
<rect x="2263.07" y="0.77832" width="1" height="32.4545" transform="rotate(-51.0999 2263.07 0.77832)" fill="#D9D9D9"/>
<rect x="2294.95" y="0.77832" width="1" height="32.4545" transform="rotate(-51.0999 2294.95 0.77832)" fill="#D9D9D9"/>
<rect x="2326.83" y="0.77832" width="1" height="32.4545" transform="rotate(-51.0999 2326.83 0.77832)" fill="#D9D9D9"/>
<rect x="2358.71" y="0.77832" width="1" height="32.4545" transform="rotate(-51.0999 2358.71 0.77832)" fill="#D9D9D9"/>
</g>
</svg>
